<svg xmlns="http://www.w3.org/2000/svg" width="38" height="38" viewBox="0 0 38 38" fill="none">
  <path d="M20.5833 14.2498H29.2916L20.5833 5.5415V14.2498ZM9.49992 3.1665H22.1666L31.6666 12.6665V31.6665C31.6666 32.5064 31.333 33.3118 30.7391 33.9057C30.1452 34.4995 29.3398 34.8332 28.4999 34.8332H9.49992C8.66007 34.8332 7.85461 34.4995 7.26075 33.9057C6.66688 33.3118 6.33325 32.5064 6.33325 31.6665V6.33317C6.33325 5.49332 6.66688 4.68786 7.26075 4.094C7.85461 3.50013 8.66007 3.1665 9.49992 3.1665ZM17.3058 19.6965C17.9549 21.1215 18.7783 22.2932 19.7283 23.1007L20.3774 23.6073C18.9999 23.8607 17.0999 24.304 15.0891 25.0798L14.9149 25.1432L15.7066 23.4965C16.4191 22.119 16.9416 20.8682 17.3058 19.6965ZM27.5658 25.729C27.8508 25.444 27.9933 25.0798 28.0091 24.684C28.0566 24.3673 27.9774 24.0665 27.8191 23.8132C27.3599 23.069 26.1724 22.7207 24.2091 22.7207L22.1666 22.8315L20.7891 21.9132C19.7916 21.0898 18.8891 19.649 18.2558 17.8598L18.3191 17.6382C18.8416 15.5323 19.3324 12.9832 18.2874 11.9382C18.1596 11.8141 18.0084 11.7166 17.8426 11.6513C17.6768 11.5861 17.4997 11.5544 17.3216 11.5582H16.9416C16.3558 11.5582 15.8333 12.1757 15.6908 12.7773C15.1049 14.8832 15.4533 16.039 16.0391 17.9548V17.9707C15.6433 19.364 15.1366 20.979 14.3291 22.6098L12.8091 25.4598L11.3999 26.2357C9.49992 27.4232 8.59742 28.7532 8.42325 29.5923C8.35992 29.8932 8.39159 30.1623 8.50242 30.4473L8.54992 30.5265L9.30992 31.0173L10.0066 31.1915C11.2891 31.1915 12.7458 29.6873 14.7091 26.3307L14.9941 26.2198C16.6249 25.6973 18.6516 25.3332 21.3749 25.0323C23.0058 25.8398 24.9216 26.204 26.1249 26.204C26.8216 26.204 27.2966 26.0298 27.5658 25.729ZM26.9166 24.6048L27.0591 24.779C27.0433 24.9373 26.9958 24.9532 26.9166 24.9848H26.8533L26.5524 25.0165C25.8241 25.0165 24.6999 24.7157 23.5441 24.209C23.6866 24.0507 23.7499 24.0507 23.9083 24.0507C26.1249 24.0507 26.7583 24.4465 26.9166 24.6048ZM12.3974 26.9165C11.3683 28.8007 10.4341 29.8457 9.72159 30.0832C9.80075 29.4815 10.5133 28.4365 11.6374 27.4073L12.3974 26.9165ZM17.1791 15.9757C16.8149 14.5507 16.7991 13.3948 17.0683 12.7298L17.1791 12.5398L17.4166 12.619C17.6858 12.999 17.7174 13.5057 17.5591 14.3607L17.5116 14.614L17.2583 15.9123L17.1791 15.9757Z" fill="currentColor"/>
</svg>

