<svg xmlns="http://www.w3.org/2000/svg" width="174" height="38" viewBox="0 0 174 38" fill="none">
  <g clip-path="url(#clip0_598_109)">
    <path d="M9.60504 37.0366H0V11.4316H9.60504V37.0366ZM4.82249 0C6.12616 0 7.25553 0.46845 8.20695 1.37993C9.15475 2.29504 9.6232 3.3772 9.6232 4.6264C9.6232 5.96638 9.17653 7.06306 8.27958 7.91644C7.37536 8.76619 6.22784 9.20195 4.82249 9.20195C3.41714 9.20195 2.27688 8.76619 1.37267 7.91644C0.46845 7.06306 0.0217884 5.96638 0.0217884 4.6264C0.0217884 3.37357 0.501133 2.29504 1.44893 1.37993C2.39672 0.46845 3.52972 0 4.82249 0Z" fill="white"/>
    <path d="M34.5564 37.0366H24.955V22.5728C24.955 21.0984 24.3449 20.3685 23.1211 20.3685C21.8973 20.3685 21.3236 21.102 21.3236 22.5728V37.0366H11.7185V22.758C11.7185 19.4207 12.8261 16.61 15.0376 14.3222C17.2528 12.0381 19.9473 10.8906 23.1502 10.8906C26.8142 10.8906 29.7629 12.2197 31.9599 14.8706C33.6885 16.9514 34.56 19.8274 34.56 23.5242V37.0366H34.5564Z" fill="white"/>
    <path d="M59.4714 37.0366H49.8736V22.5728C49.8736 21.0984 49.2635 20.3685 48.0398 20.3685C46.816 20.3685 46.2458 21.102 46.2458 22.5728V37.0366H36.6372V22.758C36.6372 19.4207 37.7411 16.61 39.9381 14.3222C42.1533 12.0381 44.8659 10.8906 48.0724 10.8906C51.7293 10.8906 54.6743 12.2197 56.8749 14.8706C58.6071 16.9514 59.4678 19.8274 59.4678 23.5242V37.0366H59.4714Z" fill="white"/>
    <path d="M159.996 37.0366H150.387V22.5728C150.387 21.0984 149.77 20.3685 148.56 20.3685C147.351 20.3685 146.766 21.102 146.766 22.5728V37.0366H137.161V22.758C137.161 19.4207 138.265 16.61 140.473 14.3222C142.688 12.0381 145.394 10.8906 148.589 10.8906C152.246 10.8906 155.191 12.2197 157.392 14.8706C159.128 16.9514 159.996 19.8274 159.996 23.5242V37.0366Z" fill="white"/>
    <path d="M135.124 25.2745H120.57C120.337 24.5373 120.228 23.8619 120.228 23.2446C120.228 22.3876 120.381 21.5451 120.689 20.7316H125.566C125.232 18.8288 124.15 17.8774 122.364 17.8774C121.165 17.8774 120.185 18.3894 119.426 19.4062C118.674 20.4157 118.296 21.7266 118.296 23.3281C118.296 24.9295 118.663 26.3276 119.393 27.3589C120.112 28.3757 121.071 28.8914 122.255 28.8914C123.217 28.8914 124.143 28.4193 125.033 27.4534L130.505 34.0334C127.956 36.038 125.123 37.033 122 37.033C118.195 37.033 115.006 35.7656 112.417 33.2055C109.832 30.6562 108.546 27.4969 108.546 23.7312C108.546 19.9654 109.853 16.817 112.464 14.2314C115.068 11.6386 118.282 10.3495 122.084 10.3495C125.886 10.3495 128.907 11.6132 131.446 14.1334C133.969 16.6681 135.24 19.7839 135.24 23.4806C135.24 23.8546 135.197 24.4611 135.128 25.2745" fill="white"/>
    <path d="M170.113 6.8125V15.1792H173.791V23.8365H170.113C170.113 25.5759 170.385 26.7634 170.926 27.4207C171.489 28.0779 172.484 28.4084 173.944 28.4084V37.0148C173.523 37.0293 173.21 37.033 173.003 37.033C171.151 37.033 169.401 36.6117 167.756 35.7438C166.111 34.8832 164.789 33.7139 163.798 32.2359C162.545 30.3512 161.92 27.8601 161.92 24.748V6.8125H170.113Z" fill="white"/>
    <path d="M80.5262 24.0362C80.5516 24.294 80.5625 24.5591 80.5625 24.8206C80.5625 29.0512 77.2725 32.4719 73.2198 32.4719C69.1672 32.4719 65.8663 29.0512 65.8663 24.8206C65.8663 20.59 69.1563 17.162 73.2198 17.162V12.2451C66.549 12.2451 61.1382 17.8737 61.1382 24.8242C61.1382 31.7747 66.5453 37.3961 73.2198 37.3961C79.8943 37.3961 85.2906 31.7711 85.2906 24.8242C85.2906 24.5627 85.2615 24.3049 85.2434 24.0398H80.5226L80.5262 24.0362Z" fill="white"/>
    <path d="M94.0423 12.2414C93.5375 12.2414 93.0364 12.2741 92.5352 12.3213V17.1438C93.0291 17.0494 93.5266 17.0094 94.0423 17.0094C98.3564 17.0094 101.857 20.3249 101.857 24.4102C101.857 28.4956 98.3564 31.8183 94.0423 31.8183C93.5302 31.8183 93.0327 31.7674 92.5352 31.6767V36.4846C93.0364 36.5391 93.5339 36.5827 94.0423 36.5827C101.134 36.5827 106.876 31.1319 106.876 24.4102C106.876 17.6885 101.134 12.2414 94.0423 12.2414Z" fill="white"/>
    <path d="M91.1698 12.2414H85.3741V6.43848H80.3955V12.2414H74.6107V17.2128H80.3955V23.0122H85.3741V17.2128H91.1698V12.2414Z" fill="#9FF6E6"/>
  </g>
  <defs>
    <clipPath id="clip0_598_109">
      <rect width="173.944" height="37.3888" fill="white"/>
    </clipPath>
  </defs>
</svg>

