<svg width="373" height="80" viewBox="0 0 373 80" fill="none" xmlns="http://www.w3.org/2000/svg">
<g clip-path="url(#clip0_598_164)">
<path d="M20.5517 79.2463H0V24.46H20.5517V79.2463ZM10.3186 0C13.108 0 15.5245 1.00233 17.5602 2.9526C19.5882 4.91064 20.5905 7.22611 20.5905 9.89899C20.5905 12.7661 19.6348 15.1127 17.7156 16.9386C15.7809 18.7568 13.3256 19.6892 10.3186 19.6892C7.31158 19.6892 4.87179 18.7568 2.93706 16.9386C1.00233 15.1127 0.04662 12.7661 0.04662 9.89899C0.04662 7.21834 1.07226 4.91064 3.10023 2.9526C5.1282 1.00233 7.55245 0 10.3186 0Z" fill="white"/>
<path d="M73.9394 79.2463H53.3955V48.2984C53.3955 45.1437 52.0902 43.582 49.4717 43.582C46.8532 43.582 45.6255 45.1515 45.6255 48.2984V79.2463H25.0739V48.6946C25.0739 41.554 27.4437 35.54 32.1756 30.6449C36.9153 25.7576 42.6807 23.3022 49.5338 23.3022C57.3738 23.3022 63.683 26.1461 68.3839 31.8182C72.0824 36.2704 73.9472 42.4242 73.9472 50.3341V79.2463H73.9394Z" fill="white"/>
<path d="M127.25 79.2463H106.713V48.2984C106.713 45.1437 105.408 43.582 102.79 43.582C100.171 43.582 98.9511 45.1515 98.9511 48.2984V79.2463H78.3917V48.6946C78.3917 41.554 80.7538 35.54 85.4546 30.6449C90.1943 25.7576 95.9985 23.3022 102.859 23.3022C110.684 23.3022 116.985 26.1461 121.694 31.8182C125.4 36.2704 127.242 42.4242 127.242 50.3341V79.2463H127.25Z" fill="white"/>
<path d="M342.339 79.2463H321.779V48.2984C321.779 45.1437 320.458 43.582 317.871 43.582C315.284 43.582 314.033 45.1515 314.033 48.2984V79.2463H293.481V48.6946C293.481 41.554 295.843 35.54 300.567 30.6449C305.307 25.7576 311.096 23.3022 317.933 23.3022C325.758 23.3022 332.059 26.1461 336.768 31.8182C340.482 36.2704 342.339 42.4242 342.339 50.3341V79.2463Z" fill="white"/>
<path d="M289.122 54.0793H257.98C257.483 52.502 257.249 51.0567 257.249 49.7358C257.249 47.9021 257.576 46.0995 258.236 44.359H268.671C267.957 40.2875 265.641 38.2518 261.818 38.2518C259.254 38.2518 257.156 39.3473 255.532 41.5229C253.924 43.683 253.116 46.488 253.116 49.9145C253.116 53.3411 253.901 56.3326 255.462 58.5392C257.001 60.7148 259.052 61.8182 261.585 61.8182C263.644 61.8182 265.626 60.8081 267.529 58.7413L279.239 72.8205C273.784 77.1096 267.723 79.2386 261.041 79.2386C252.898 79.2386 246.076 76.5268 240.536 71.049C235.004 65.5944 232.253 58.8345 232.253 50.777C232.253 42.7195 235.051 35.9829 240.637 30.4507C246.208 24.9029 253.085 22.1445 261.22 22.1445C269.355 22.1445 275.82 24.8485 281.251 30.2409C286.651 35.6643 289.371 42.331 289.371 50.2409C289.371 51.0412 289.277 52.3388 289.13 54.0793" fill="white"/>
<path d="M363.986 14.5767V32.4788H371.857V51.0025H363.986C363.986 54.7243 364.569 57.2651 365.727 58.6715C366.931 60.0778 369.06 60.7849 372.183 60.7849V79.1998C371.282 79.2309 370.614 79.2387 370.171 79.2387C366.208 79.2387 362.463 78.3373 358.943 76.4803C355.423 74.6388 352.595 72.1369 350.474 68.9745C347.793 64.9418 346.457 59.6116 346.457 52.9527V14.5767H363.986Z" fill="white"/>
<path d="M172.3 51.4294C172.354 51.9811 172.378 52.5483 172.378 53.1077C172.378 62.1598 165.338 69.4791 156.667 69.4791C147.995 69.4791 140.932 62.1598 140.932 53.1077C140.932 44.0557 147.972 36.7208 156.667 36.7208V26.2002C142.393 26.2002 130.816 38.2437 130.816 53.1155C130.816 67.9873 142.385 80.0153 156.667 80.0153C170.948 80.0153 182.494 67.9795 182.494 53.1155C182.494 52.5561 182.432 52.0044 182.393 51.4372H172.292L172.3 51.4294Z" fill="white"/>
<path d="M201.22 26.1924C200.14 26.1924 199.068 26.2623 197.995 26.3633V36.6819C199.052 36.4799 200.117 36.3944 201.22 36.3944C210.451 36.3944 217.941 43.4884 217.941 52.2297C217.941 60.9709 210.451 68.0805 201.22 68.0805C200.124 68.0805 199.06 67.9717 197.995 67.7775V78.065C199.068 78.1815 200.132 78.2747 201.22 78.2747C216.395 78.2747 228.679 66.612 228.679 52.2297C228.679 37.8474 216.395 26.1924 201.22 26.1924Z" fill="white"/>
<path d="M195.074 26.1928H182.673V13.7764H172.02V26.1928H159.643V36.83H172.02V49.2387H182.673V36.83H195.074V26.1928Z" fill="#9FF6E6"/>
</g>
<defs>
<clipPath id="clip0_598_164">
<rect width="372.183" height="80" fill="white"/>
</clipPath>
</defs>
</svg>
